<?xml version="1.0" encoding="UTF-8" standalone="no"?>
<!-- Created with Inkscape (http://www.inkscape.org/) -->

<svg
   xmlns:dc="http://purl.org/dc/elements/1.1/"
   xmlns:cc="http://creativecommons.org/ns#"
   xmlns:rdf="http://www.w3.org/1999/02/22-rdf-syntax-ns#"
   xmlns:svg="http://www.w3.org/2000/svg"
   xmlns="http://www.w3.org/2000/svg"
   version="1.1"
   width="100%"
   height="100%"
   viewBox="0 0 100 125"
   id="svg3057"
   xml:space="preserve"><metadata
     id="metadata3089"><rdf:RDF><cc:Work
         rdf:about=""><dc:format>image/svg+xml</dc:format><dc:type
           rdf:resource="http://purl.org/dc/dcmitype/StillImage" /><dc:title></dc:title></cc:Work></rdf:RDF></metadata><defs
     id="defs3087" /><path
     d="m 30.612,69.352 c 0,0 0.013,-0.07 0.046,-0.198 0.033,-0.127 0.077,-0.315 0.149,-0.548 0.137,-0.471 0.357,-1.131 0.667,-1.898 0.156,-0.383 0.335,-0.793 0.535,-1.219 0.202,-0.423 0.422,-0.867 0.67,-1.313 0.244,-0.448 0.512,-0.9 0.796,-1.349 0.287,-0.446 0.592,-0.891 0.913,-1.324 0.324,-0.424 0.655,-0.844 1.006,-1.231 0.345,-0.394 0.708,-0.757 1.069,-1.092 0.183,-0.167 0.365,-0.323 0.546,-0.474 0.186,-0.147 0.367,-0.287 0.546,-0.421 0.185,-0.123 0.363,-0.245 0.537,-0.36 0.178,-0.105 0.353,-0.207 0.519,-0.297 0.341,-0.179 0.656,-0.323 0.946,-0.422 0.283,-0.115 0.546,-0.162 0.753,-0.216 0.209,-0.052 0.38,-0.058 0.492,-0.077 0.112,-0.012 0.173,-0.018 0.173,-0.018 0,0 -0.053,0.035 -0.151,0.101 -0.101,0.063 -0.247,0.152 -0.427,0.273 -0.18,0.129 -0.396,0.268 -0.632,0.458 -0.239,0.18 -0.497,0.403 -0.777,0.644 -0.135,0.125 -0.278,0.255 -0.424,0.39 -0.143,0.141 -0.291,0.283 -0.441,0.435 -0.147,0.153 -0.298,0.312 -0.454,0.474 -0.148,0.172 -0.309,0.332 -0.461,0.509 -0.309,0.355 -0.621,0.728 -0.934,1.115 -0.311,0.388 -0.622,0.785 -0.924,1.195 -0.312,0.405 -0.605,0.824 -0.902,1.233 -0.29,0.417 -0.574,0.83 -0.851,1.227 -0.549,0.8 -1.057,1.558 -1.497,2.213 -0.437,0.654 -0.81,1.202 -1.073,1.586 -0.126,0.194 -0.236,0.344 -0.306,0.446 -0.071,0.103 -0.109,0.158 -0.109,0.158 z"
     id="path3059"
     style="fill:#000000" /><path
     d="m 35.794,66.03 c 0,0 0.006,-0.021 0.014,-0.061 0.008,-0.034 0.028,-0.093 0.038,-0.153 0.001,-0.031 -10e-4,-0.062 -0.006,-0.094 -0.006,-0.025 -0.007,-0.057 -0.011,-0.096 -0.008,-0.071 -0.015,-0.148 -0.023,-0.236 -0.006,-0.089 -0.013,-0.176 -0.011,-0.286 0,-0.105 0.01,-0.226 0.026,-0.344 0.021,-0.124 0.045,-0.251 0.088,-0.386 0.037,-0.131 0.096,-0.263 0.158,-0.389 0.071,-0.126 0.142,-0.252 0.233,-0.358 0.088,-0.106 0.184,-0.205 0.287,-0.281 0.053,-0.037 0.098,-0.08 0.151,-0.11 0.054,-0.027 0.104,-0.058 0.157,-0.079 0.051,-0.023 0.101,-0.045 0.15,-0.062 0.051,-0.014 0.101,-0.026 0.148,-0.033 0.096,-0.015 0.183,-0.029 0.263,-0.025 0.08,0.004 0.153,0.021 0.21,0.031 0.058,0.009 0.106,0.028 0.137,0.035 0.032,0.012 0.049,0.021 0.049,0.021 0,0 -0.006,0.02 -0.017,0.059 -0.014,0.033 -0.028,0.091 -0.053,0.15 -0.022,0.059 -0.049,0.132 -0.081,0.204 -0.029,0.073 -0.061,0.156 -0.097,0.244 -0.036,0.078 -0.072,0.164 -0.105,0.251 -0.038,0.08 -0.075,0.165 -0.109,0.248 -0.016,0.043 -0.04,0.078 -0.058,0.12 -0.015,0.044 -0.032,0.084 -0.055,0.123 -0.041,0.076 -0.075,0.16 -0.12,0.238 -0.04,0.085 -0.088,0.158 -0.136,0.248 -0.05,0.081 -0.1,0.172 -0.158,0.255 -0.056,0.092 -0.118,0.177 -0.186,0.269 -0.063,0.084 -0.14,0.174 -0.215,0.247 -0.042,0.038 -0.079,0.075 -0.117,0.106 -0.043,0.031 -0.086,0.062 -0.126,0.084 -0.039,0.023 -0.076,0.048 -0.125,0.063 -0.044,0.014 -0.082,0.023 -0.113,0.029 -0.059,0.006 -0.105,-0.018 -0.138,-0.02 -0.031,-0.008 -0.049,-0.012 -0.049,-0.012 z"
     id="path3061"
     style="fill:#000000" /><path
     d="m 53.633,23.436 c 0,0 -0.244,0.028 -0.666,0.068 -0.42,0.038 -1.015,0.084 -1.718,0.131 -0.698,0.047 -1.511,0.102 -2.382,0.16 -0.215,0.017 -0.434,0.033 -0.654,0.05 -0.222,0.018 -0.443,0.042 -0.668,0.057 -0.448,0.049 -0.901,0.084 -1.351,0.148 -0.453,0.045 -0.898,0.124 -1.338,0.193 -0.221,0.034 -0.434,0.085 -0.649,0.119 -0.213,0.042 -0.421,0.095 -0.63,0.134 -0.205,0.051 -0.407,0.103 -0.604,0.15 -0.196,0.057 -0.39,0.112 -0.577,0.166 -0.186,0.06 -0.366,0.12 -0.542,0.177 -0.173,0.064 -0.342,0.125 -0.505,0.185 -0.16,0.066 -0.313,0.133 -0.461,0.194 -0.149,0.058 -0.28,0.136 -0.414,0.194 -0.065,0.031 -0.13,0.06 -0.191,0.087 -0.061,0.035 -0.119,0.065 -0.174,0.096 -0.112,0.06 -0.217,0.116 -0.311,0.166 -0.188,0.11 -0.335,0.197 -0.437,0.257 -0.104,0.058 -0.16,0.09 -0.16,0.09 0,0 0.033,-0.061 0.095,-0.175 0.065,-0.108 0.151,-0.284 0.285,-0.482 0.068,-0.098 0.146,-0.205 0.233,-0.321 0.083,-0.12 0.184,-0.238 0.293,-0.358 0.109,-0.12 0.229,-0.256 0.359,-0.382 0.136,-0.124 0.277,-0.254 0.426,-0.389 0.154,-0.123 0.319,-0.247 0.491,-0.377 0.173,-0.125 0.359,-0.234 0.548,-0.36 0.191,-0.116 0.395,-0.214 0.6,-0.328 0.208,-0.106 0.425,-0.192 0.644,-0.292 0.443,-0.174 0.906,-0.336 1.386,-0.451 0.476,-0.122 0.965,-0.21 1.454,-0.272 0.978,-0.12 1.96,-0.123 2.869,-0.035 0.455,0.038 0.892,0.107 1.304,0.183 0.411,0.08 0.798,0.174 1.152,0.274 0.706,0.201 1.281,0.433 1.679,0.619 0.397,0.186 0.614,0.324 0.614,0.324 z"
     id="path3063"
     style="fill:#000000" /><path
     d="m 49.998,20.348 c 0,0 -0.099,0.027 -0.264,0.061 -0.084,0.017 -0.183,0.041 -0.299,0.058 -0.113,0.02 -0.242,0.048 -0.382,0.067 -0.276,0.045 -0.597,0.088 -0.936,0.131 -0.339,0.045 -0.698,0.083 -1.052,0.138 -0.179,0.016 -0.352,0.055 -0.525,0.077 -0.172,0.029 -0.341,0.059 -0.506,0.088 -0.162,0.035 -0.319,0.068 -0.468,0.102 -0.146,0.041 -0.284,0.083 -0.419,0.114 -0.129,0.045 -0.249,0.085 -0.354,0.124 -0.111,0.031 -0.196,0.08 -0.275,0.115 -0.154,0.07 -0.253,0.107 -0.253,0.107 0,0 0.048,-0.099 0.15,-0.264 0.052,-0.081 0.11,-0.194 0.204,-0.282 0.09,-0.094 0.189,-0.211 0.312,-0.318 0.123,-0.095 0.262,-0.201 0.413,-0.3 0.155,-0.083 0.32,-0.175 0.497,-0.251 0.175,-0.062 0.359,-0.143 0.548,-0.185 0.188,-0.046 0.384,-0.092 0.576,-0.115 0.195,-0.025 0.39,-0.045 0.58,-0.044 0.191,-0.009 0.379,0.002 0.56,0.015 0.18,0.011 0.354,0.044 0.518,0.07 0.164,0.032 0.318,0.067 0.459,0.108 0.282,0.082 0.512,0.173 0.671,0.251 0.158,0.074 0.245,0.133 0.245,0.133 z"
     id="path3065"
     style="fill:#000000" /><path
     d="m 72.088,48.309 c 0,0 -0.052,-0.005 -0.152,-0.012 -0.092,-0.011 -0.237,-0.01 -0.411,-0.022 -0.18,-0.006 -0.388,-0.02 -0.626,-0.025 -0.122,0 -0.248,-0.008 -0.379,-0.011 -0.132,0 -0.27,0 -0.414,0 -0.141,-10e-4 -0.29,-0.007 -0.444,0.003 -0.152,0.008 -0.307,0.005 -0.466,0.008 -0.162,0.018 -0.326,0.021 -0.491,0.029 -0.084,0.007 -0.166,0.01 -0.25,0.011 -0.084,0.009 -0.169,0.02 -0.257,0.027 -0.17,0.021 -0.343,0.032 -0.519,0.043 -0.172,0.026 -0.35,0.057 -0.526,0.075 -0.354,0.031 -0.708,0.122 -1.064,0.179 -0.181,0.017 -0.356,0.078 -0.532,0.118 -0.175,0.048 -0.354,0.08 -0.527,0.118 -0.348,0.104 -0.688,0.209 -1.028,0.293 -0.329,0.113 -0.65,0.229 -0.965,0.325 -0.161,0.037 -0.307,0.104 -0.452,0.162 -0.147,0.055 -0.29,0.107 -0.427,0.16 -0.273,0.102 -0.542,0.173 -0.764,0.277 -0.228,0.092 -0.43,0.17 -0.601,0.229 -0.172,0.061 -0.313,0.099 -0.408,0.131 -0.097,0.024 -0.151,0.04 -0.151,0.04 0,0 0.031,-0.052 0.087,-0.146 0.057,-0.09 0.14,-0.231 0.254,-0.396 0.111,-0.168 0.252,-0.364 0.418,-0.588 0.166,-0.233 0.386,-0.442 0.623,-0.681 0.118,-0.118 0.246,-0.234 0.377,-0.361 0.134,-0.124 0.271,-0.247 0.427,-0.354 0.305,-0.216 0.631,-0.449 0.984,-0.66 0.179,-0.094 0.364,-0.182 0.554,-0.272 0.188,-0.087 0.382,-0.185 0.58,-0.255 0.201,-0.065 0.402,-0.136 0.61,-0.192 0.203,-0.054 0.407,-0.128 0.619,-0.157 0.424,-0.058 0.842,-0.15 1.264,-0.137 0.207,-0.007 0.415,-0.007 0.62,0 0.205,0.019 0.407,0.039 0.603,0.067 0.097,0.014 0.198,0.026 0.294,0.041 0.094,0.017 0.189,0.042 0.283,0.065 0.187,0.05 0.372,0.09 0.549,0.142 0.347,0.129 0.672,0.236 0.961,0.394 0.146,0.077 0.285,0.142 0.41,0.218 0.126,0.08 0.249,0.154 0.358,0.231 0.22,0.148 0.405,0.3 0.55,0.43 0.29,0.263 0.429,0.453 0.429,0.453 z"
     id="path3067"
     style="fill:#000000" /><path
     d="m 69.749,49.47 c 0,0 -0.013,0.084 -0.062,0.213 -0.044,0.134 -0.124,0.31 -0.245,0.498 -0.122,0.191 -0.286,0.388 -0.49,0.566 -0.105,0.089 -0.213,0.175 -0.332,0.248 -0.121,0.069 -0.244,0.141 -0.374,0.188 l -0.201,0.073 c -0.063,0.02 -0.133,0.031 -0.2,0.047 -0.135,0.033 -0.271,0.038 -0.4,0.038 -0.127,0.008 -0.254,-0.016 -0.372,-0.038 -0.057,-0.014 -0.113,-0.023 -0.168,-0.039 -0.052,-0.021 -0.104,-0.042 -0.154,-0.061 -0.099,-0.044 -0.184,-0.079 -0.259,-0.128 -0.069,-0.049 -0.134,-0.1 -0.181,-0.14 -0.1,-0.081 -0.148,-0.138 -0.148,-0.138 0,0 0.07,-0.026 0.184,-0.058 0.056,-0.012 0.124,-0.031 0.201,-0.045 0.07,-0.017 0.155,-0.047 0.24,-0.067 0.046,-0.01 0.089,-0.021 0.137,-0.03 0.045,-0.015 0.094,-0.03 0.139,-0.046 0.096,-0.026 0.193,-0.051 0.292,-0.089 0.052,-0.019 0.104,-0.031 0.152,-0.047 0.05,-0.016 0.102,-0.04 0.152,-0.057 l 0.154,-0.053 0.153,-0.065 c 0.105,-0.031 0.204,-0.089 0.311,-0.126 0.103,-0.045 0.206,-0.091 0.302,-0.134 0.102,-0.046 0.199,-0.091 0.29,-0.134 0.097,-0.043 0.188,-0.084 0.269,-0.121 0.173,-0.076 0.324,-0.142 0.434,-0.187 0.107,-0.042 0.176,-0.068 0.176,-0.068 z"
     id="path3069"
     style="fill:#000000" /><path
     d="m 74.628,67.775 c 0,0 -0.056,-0.01 -0.16,-0.024 -0.105,-0.011 -0.259,-0.03 -0.456,-0.027 -0.196,0.007 -0.438,0.022 -0.7,0.106 -0.258,0.078 -0.559,0.226 -0.746,0.52 -0.096,0.143 -0.159,0.313 -0.185,0.503 -0.021,0.184 -0.011,0.402 0.027,0.583 0.03,0.107 0.05,0.226 0.079,0.33 0.035,0.087 0.072,0.177 0.107,0.266 0.051,0.091 0.102,0.179 0.15,0.269 0.06,0.087 0.122,0.166 0.183,0.251 0.259,0.32 0.593,0.581 0.951,0.812 0.362,0.226 0.749,0.421 1.152,0.581 0.198,0.082 0.405,0.15 0.603,0.212 0.104,0.032 0.2,0.059 0.3,0.082 l 0.017,0.003 0.01,0.002 c -0.01,-0.001 0.03,0.004 -0.024,-0.002 l 0.004,10e-4 0.043,0.005 0.082,0.012 0.042,0.008 c 0.006,-0.004 0.008,-0.006 0.014,-0.006 0.008,0 0.014,0 0.023,0.002 0.014,-0.002 0.03,-0.004 0.04,-0.006 0,0 0.004,0 0.01,0.002 0.005,-0.002 0.007,-0.008 0.013,-0.008 0.008,0.002 0.014,-0.005 0.02,-0.018 0.004,-0.009 0.014,-0.016 0.02,-0.028 0.012,-0.036 0.028,-0.058 0.038,-0.11 0.057,-0.172 0.089,-0.419 0.112,-0.655 0.023,-0.242 0.053,-0.487 0.082,-0.729 0.016,-0.123 0.033,-0.239 0.051,-0.359 l 0.029,-0.167 0.023,-0.17 c 0.066,-0.413 0.029,-0.828 -0.092,-1.174 -0.121,-0.347 -0.348,-0.604 -0.581,-0.761 -0.233,-0.154 -0.468,-0.232 -0.663,-0.266 -0.192,-0.037 -0.349,-0.041 -0.454,-0.039 -0.105,-10e-4 -0.164,-10e-4 -0.164,-10e-4 z m 0,0 c 0,0 0.059,-0.002 0.163,-0.004 0.105,-0.006 0.26,0.002 0.456,0.025 0.199,0.021 0.436,0.086 0.69,0.218 0.252,0.135 0.524,0.368 0.714,0.727 0.187,0.358 0.299,0.815 0.306,1.305 l 0.004,0.171 v 0.18 c -0.002,0.113 0.004,0.229 0.008,0.346 0.012,0.237 0.021,0.479 0.035,0.726 0.004,0.255 0.016,0.515 -0.031,0.837 -0.008,0.076 -0.038,0.17 -0.06,0.252 -0.016,0.046 -0.041,0.092 -0.062,0.139 -0.02,0.046 -0.045,0.093 -0.082,0.14 -0.03,0.043 -0.062,0.09 -0.104,0.128 -0.041,0.035 -0.084,0.067 -0.127,0.103 -0.09,0.055 -0.18,0.087 -0.273,0.108 -0.047,0.009 -0.096,0.016 -0.143,0.021 L 76.049,73.201 76.006,73.2 75.924,73.197 75.883,73.195 h -0.006 l -0.035,-0.005 -0.01,-0.002 -0.023,-0.003 c -0.124,-0.021 -0.243,-0.046 -0.36,-0.072 -0.239,-0.055 -0.468,-0.136 -0.693,-0.225 -0.451,-0.187 -0.888,-0.427 -1.285,-0.74 -0.396,-0.312 -0.754,-0.703 -1.016,-1.161 -0.063,-0.119 -0.123,-0.234 -0.178,-0.356 -0.045,-0.126 -0.09,-0.249 -0.132,-0.374 -0.029,-0.136 -0.057,-0.271 -0.081,-0.401 -0.014,-0.124 -0.014,-0.233 -0.023,-0.347 -0.012,-0.271 0.018,-0.499 0.081,-0.73 0.063,-0.225 0.173,-0.425 0.308,-0.571 0.275,-0.293 0.6,-0.396 0.869,-0.45 0.273,-0.05 0.518,-0.055 0.714,-0.046 0.393,0.011 0.615,0.063 0.615,0.063 z"
     id="path3071"
     style="fill:#000000" /><path
     d="m 27.487,32.212 c 0.044,0.356 0.084,0.713 0.116,1.07 0.037,0.355 0.068,0.713 0.095,1.07 l -0.075,-0.189 c 0.284,0.218 0.596,0.417 0.903,0.599 0.309,0.182 0.628,0.331 0.946,0.453 0.633,0.241 1.299,0.346 1.833,0.135 0.269,-0.102 0.506,-0.27 0.702,-0.511 0.046,-0.064 0.101,-0.117 0.144,-0.188 l 0.068,-0.102 0.034,-0.05 10e-4,-0.004 c 0.013,-0.022 -0.016,0.026 -0.011,0.021 l 0.004,-0.009 0.01,-0.017 0.017,-0.033 0.146,-0.264 c 0.043,-0.085 0.109,-0.183 0.134,-0.257 0.032,-0.078 0.065,-0.154 0.099,-0.231 l 0.052,-0.113 0.039,-0.124 0.082,-0.248 0.049,-0.244 C 32.929,32.649 32.945,32.33 32.867,32.019 32.794,31.71 32.663,31.402 32.481,31.1 32.302,30.8 32.079,30.508 31.839,30.216 l -0.37,-0.447 -0.094,-0.114 -0.048,-0.058 -0.006,-0.007 c 0.058,0.061 0.015,0.015 0.026,0.027 L 31.343,29.614 31.331,29.601 31.306,29.576 31.204,29.471 31.155,29.417 31.13,29.392 31.113,29.383 c -0.047,-0.026 -0.083,-0.064 -0.133,-0.096 -0.058,-0.022 -0.112,-0.06 -0.174,-0.079 -0.061,-0.009 -0.122,-0.034 -0.188,-0.039 -0.065,0.004 -0.131,-0.008 -0.2,-0.001 -0.275,0.023 -0.57,0.163 -0.848,0.357 -0.071,0.045 -0.14,0.097 -0.205,0.156 -0.066,0.058 -0.135,0.112 -0.201,0.173 -0.125,0.132 -0.26,0.254 -0.379,0.4 -0.253,0.273 -0.468,0.599 -0.689,0.922 -0.109,0.164 -0.205,0.337 -0.312,0.506 l -0.297,0.53 z m 0,0 c 0.052,-0.202 0.108,-0.404 0.168,-0.606 0.067,-0.196 0.132,-0.396 0.21,-0.591 0.155,-0.387 0.335,-0.767 0.555,-1.123 0.211,-0.364 0.472,-0.691 0.777,-0.983 0.302,-0.292 0.663,-0.55 1.1,-0.65 0.108,-0.026 0.223,-0.032 0.336,-0.044 0.113,-0.005 0.23,0.017 0.345,0.028 0.114,0.023 0.226,0.069 0.339,0.107 0.113,0.051 0.229,0.13 0.34,0.202 l 0.042,0.027 0.026,0.024 0.052,0.048 0.108,0.095 0.026,0.023 0.014,0.014 0.042,0.042 0.049,0.051 0.099,0.104 c 0.132,0.139 0.27,0.276 0.404,0.427 0.27,0.295 0.547,0.606 0.789,0.984 0.239,0.377 0.458,0.812 0.576,1.312 0.127,0.499 0.118,1.042 0.028,1.531 -0.024,0.122 -0.05,0.246 -0.078,0.364 l -0.113,0.34 -0.059,0.169 -0.073,0.164 -0.152,0.323 c -0.052,0.119 -0.101,0.182 -0.152,0.275 l -0.154,0.258 -0.053,0.09 -0.051,0.071 -0.101,0.142 c -0.065,0.099 -0.15,0.18 -0.225,0.269 -0.316,0.344 -0.72,0.607 -1.144,0.723 -0.425,0.124 -0.854,0.118 -1.25,0.034 -0.399,-0.082 -0.769,-0.234 -1.115,-0.424 -0.349,-0.187 -0.669,-0.418 -0.976,-0.665 -0.31,-0.248 -0.592,-0.517 -0.867,-0.823 l -0.083,-0.095 0.007,-0.094 c 0.026,-0.357 0.058,-0.715 0.094,-1.07 0.038,-0.36 0.076,-0.717 0.12,-1.073 z"
     id="path3073"
     style="fill:#000000" /><path
     d="m 42.965,83.013 c 0,0 -0.072,0.056 -0.202,0.169 -0.129,0.113 -0.319,0.281 -0.536,0.528 -0.213,0.246 -0.467,0.562 -0.675,0.986 -0.209,0.409 -0.37,0.961 -0.256,1.497 0.05,0.267 0.182,0.509 0.347,0.729 0.19,0.255 0.377,0.472 0.593,0.688 0.429,0.434 0.93,0.816 1.468,1.095 0.536,0.284 1.111,0.45 1.645,0.424 0.271,0.004 0.521,-0.077 0.767,-0.158 l 0.177,-0.098 c 0.061,-0.029 0.122,-0.051 0.177,-0.098 l 0.171,-0.119 0.042,-0.029 0.021,-0.016 0.006,-0.004 c -0.016,0.016 0.044,-0.035 -0.033,0.031 l 0.013,-0.012 0.103,-0.095 0.204,-0.186 c 0.042,-0.034 0.047,-0.053 0.068,-0.074 l 0.054,-0.07 c 0.077,-0.073 0.142,-0.198 0.219,-0.306 0.12,-0.23 0.218,-0.479 0.268,-0.776 0.097,-0.601 0.039,-1.335 -0.038,-2.082 -0.039,-0.37 -0.072,-0.756 -0.101,-1.132 -0.008,-0.196 -0.024,-0.382 -0.022,-0.574 -10e-4,-0.097 -10e-4,-0.191 -0.002,-0.285 0.008,0.07 0.002,0.014 0.004,0.028 V 83.065 L 47.445,83.048 47.444,83.012 47.44,82.947 47.437,82.885 c -0.002,-0.008 -0.004,-0.016 -0.005,-0.023 -0.001,-0.159 -0.153,-0.358 -0.379,-0.458 -0.225,-0.102 -0.484,-0.146 -0.733,-0.162 -0.503,-0.027 -0.979,0.045 -1.39,0.129 -0.414,0.086 -0.769,0.195 -1.06,0.292 -0.291,0.096 -0.515,0.189 -0.668,0.249 -0.155,0.067 -0.237,0.101 -0.237,0.101 z m 0,0 c 0,0 0.081,-0.035 0.232,-0.105 0.151,-0.064 0.376,-0.155 0.661,-0.271 0.285,-0.118 0.637,-0.249 1.041,-0.394 0.408,-0.134 0.869,-0.285 1.402,-0.366 0.269,-0.037 0.555,-0.066 0.871,-0.002 0.159,0.034 0.33,0.087 0.493,0.215 0.165,0.126 0.313,0.296 0.398,0.566 0.058,0.172 0.048,0.154 0.082,0.326 0.016,0.083 0.033,0.165 0.05,0.245 0.027,0.16 0.076,0.331 0.116,0.496 0.095,0.343 0.193,0.695 0.294,1.05 0.198,0.729 0.417,1.556 0.363,2.546 -0.026,0.493 -0.168,1.013 -0.391,1.476 -0.124,0.222 -0.243,0.44 -0.422,0.641 l -0.127,0.15 c -0.041,0.047 -0.091,0.107 -0.119,0.132 l -0.204,0.188 -0.102,0.092 -0.014,0.014 c -0.081,0.068 -0.028,0.021 -0.047,0.039 l -0.009,0.006 -0.035,0.023 -0.069,0.046 -0.277,0.186 c -0.185,0.123 -0.397,0.197 -0.595,0.283 l -0.315,0.083 c -0.104,0.024 -0.21,0.056 -0.316,0.058 -0.214,0.016 -0.424,0.033 -0.629,0.003 -0.831,-0.083 -1.551,-0.474 -2.127,-0.962 -0.58,-0.486 -1.043,-1.062 -1.419,-1.646 -0.189,-0.292 -0.359,-0.61 -0.49,-0.889 -0.156,-0.312 -0.263,-0.659 -0.278,-0.995 -0.017,-0.336 0.043,-0.648 0.133,-0.919 0.092,-0.27 0.216,-0.5 0.34,-0.703 0.257,-0.402 0.523,-0.701 0.752,-0.935 0.459,-0.467 0.757,-0.677 0.757,-0.677 z"
     id="path3075"
     style="fill:#000000" /><path
     d="M 86.715,52.896 C 85.322,48.275 83.824,44.322 82.288,40.712 82.142,40.284 81.966,39.84 81.754,39.386 81.654,39.156 81.537,38.931 81.419,38.702 80.31,36.2 79.187,33.843 78.077,31.517 76.84,28.913 75.555,26.218 74.323,23.382 73.756,22.085 73.226,20.743 72.71,19.45 69.457,11.227 66.09,2.725 52.318,1.061 46.339,0.339 43.085,-0.005 40.76,-0.005 c -4.163,0 -5.436,1.185 -7.968,3.546 -0.216,0.202 -0.445,0.413 -0.686,0.636 -2.446,2.253 -5.977,7.081 -8.993,12.298 -2.016,3.486 -5.427,9.98 -5.616,14.293 -0.153,3.475 -0.067,8.365 0.01,12.677 0.063,3.647 0.125,7.089 -0.001,8.189 -0.077,0.672 -0.315,1.604 -0.591,2.684 -0.674,2.642 -1.597,6.261 -1.281,10.349 0.33,4.222 3.331,11.489 6.121,17.976 0.538,1.245 0.96,2.231 1.135,2.706 l 0.083,0.228 0.154,0.176 c 0.127,0.146 3.183,3.621 7.746,7.144 6.192,4.78 11.917,7.203 17.02,7.203 10e-4,0 0.002,0 0.002,0 0.49,0 0.981,-0.021 1.459,-0.068 12.324,-1.188 27.444,-13.01 29.992,-16.55 0.612,-0.844 3.757,-5.367 6.014,-11.533 2.578,-7.047 3.033,-13.458 1.355,-19.053 z M 66.634,11.776 c 1.219,1.86 2.176,3.936 3.083,6.133 -0.12,0.007 -0.248,0.011 -0.381,0.018 -0.104,-0.008 -0.21,-0.018 -0.318,-0.026 -0.103,-0.033 -0.212,-0.035 -0.308,-0.083 -0.195,-0.066 -0.35,-0.202 -0.491,-0.374 -0.036,-0.05 -0.073,-0.088 -0.109,-0.145 l -0.1,-0.167 C 67.946,17.002 67.876,16.879 67.812,16.729 67.675,16.42 67.538,16.104 67.397,15.788 67.319,15.614 67.243,15.462 67.163,15.307 L 67.129,15.24 67.108,15.193 67.066,15.1 C 67.037,15.037 67,14.985 66.982,14.912 66.883,14.647 66.807,14.36 66.759,14.062 66.707,13.767 66.682,13.465 66.66,13.175 c -0.018,-0.291 -0.027,-0.573 -0.028,-0.836 10e-4,-0.201 10e-4,-0.387 0.002,-0.563 z M 23.679,81.513 c -0.378,-0.883 -0.822,-1.911 -1.291,-3.026 0.411,0.196 0.864,0.431 1.301,0.739 0.485,0.34 0.945,0.779 1.213,1.323 0.139,0.269 0.222,0.563 0.265,0.869 l 0.021,0.231 0.001,0.008 0.001,0.004 c 0,0.004 0,-0.006 0,-0.012 v 0.016 l 10e-4,0.036 0.002,0.067 0.003,0.139 c 0.006,0.186 0.012,0.364 0.017,0.54 0.022,0.364 0.008,0.683 0.008,0.997 0.01,0.312 -0.019,0.609 -0.028,0.888 -0.004,0.066 -0.009,0.137 -0.011,0.202 -10e-4,0.006 -10e-4,0.01 -0.002,0.016 -0.175,-0.187 -0.312,-0.331 -0.404,-0.437 -0.221,-0.565 -0.599,-1.444 -1.097,-2.6 z m 54.027,0.349 c -2.141,2.972 -16.741,14.527 -28.527,15.662 -0.42,0.041 -0.852,0.061 -1.283,0.061 0,0 -10e-4,0 -0.002,0 -9.425,-0.002 -19.368,-9.548 -22.359,-12.662 0.053,-0.15 0.108,-0.307 0.143,-0.481 0.065,-0.285 0.152,-0.592 0.19,-0.932 0.046,-0.334 0.102,-0.702 0.109,-1.051 0.008,-0.178 0.017,-0.357 0.024,-0.543 l 0.006,-0.135 0.004,-0.07 0.002,-0.034 V 81.659 81.624 C 26.007,81.515 26.001,81.406 25.997,81.301 25.961,80.864 25.836,80.426 25.644,80.04 25.451,79.655 25.196,79.33 24.916,79.065 24.64,78.802 24.341,78.598 24.047,78.438 23.456,78.116 22.878,77.95 22.381,77.866 22.288,77.848 22.2,77.836 22.112,77.825 20.8,74.679 19.343,70.973 18.491,67.946 c 0.014,-0.078 0.026,-0.151 0.042,-0.23 0.087,-0.496 0.196,-1.054 0.319,-1.652 0.121,-0.599 0.273,-1.239 0.433,-1.91 0.178,-0.665 0.352,-1.364 0.566,-2.069 0.087,-0.362 0.216,-0.712 0.315,-1.082 0.123,-0.355 0.229,-0.729 0.364,-1.089 0.069,-0.181 0.139,-0.363 0.207,-0.544 0.068,-0.183 0.155,-0.352 0.231,-0.531 0.148,-0.364 0.34,-0.69 0.519,-1.036 0.088,-0.172 0.197,-0.326 0.294,-0.49 0.103,-0.16 0.199,-0.328 0.306,-0.486 l 0.33,-0.455 0.164,-0.233 c 0.058,-0.069 0.118,-0.141 0.177,-0.211 0.237,-0.287 0.467,-0.573 0.722,-0.825 0.123,-0.132 0.247,-0.261 0.369,-0.39 0.13,-0.124 0.261,-0.237 0.39,-0.354 0.129,-0.115 0.258,-0.23 0.385,-0.343 0.135,-0.105 0.268,-0.207 0.398,-0.308 0.132,-0.104 0.264,-0.201 0.391,-0.301 0.136,-0.087 0.27,-0.174 0.402,-0.261 0.519,-0.365 1.049,-0.624 1.533,-0.882 0.25,-0.11 0.489,-0.22 0.717,-0.317 0.115,-0.047 0.225,-0.104 0.334,-0.144 0.112,-0.036 0.219,-0.078 0.323,-0.113 0.42,-0.139 0.781,-0.286 1.088,-0.36 0.614,-0.168 0.966,-0.264 0.966,-0.264 l -0.022,-0.199 c 0,0 -0.363,0.041 -0.999,0.115 -0.319,0.021 -0.699,0.119 -1.14,0.205 -0.11,0.021 -0.225,0.047 -0.342,0.071 -0.116,0.027 -0.234,0.066 -0.356,0.101 -0.244,0.071 -0.501,0.147 -0.771,0.227 -0.526,0.201 -1.107,0.398 -1.692,0.708 -0.147,0.073 -0.297,0.146 -0.45,0.22 -0.145,0.091 -0.293,0.181 -0.443,0.273 -0.15,0.09 -0.302,0.184 -0.455,0.277 -0.147,0.105 -0.296,0.214 -0.446,0.323 -0.15,0.108 -0.302,0.215 -0.453,0.334 -0.144,0.124 -0.291,0.249 -0.437,0.375 -0.302,0.244 -0.574,0.535 -0.855,0.823 -0.071,0.074 -0.142,0.144 -0.211,0.217 l -0.198,0.235 -0.398,0.473 c -0.13,0.161 -0.249,0.336 -0.374,0.502 -0.122,0.17 -0.255,0.335 -0.364,0.518 -0.231,0.353 -0.464,0.708 -0.672,1.079 -0.104,0.187 -0.217,0.364 -0.314,0.554 -0.099,0.192 -0.196,0.38 -0.292,0.569 -0.102,0.187 -0.185,0.38 -0.273,0.576 -0.087,0.191 -0.174,0.383 -0.252,0.579 -0.15,0.394 -0.298,0.782 -0.413,1.18 -0.194,0.629 -0.326,1.256 -0.427,1.865 -0.048,-3.13 0.664,-5.928 1.251,-8.228 0.302,-1.181 0.562,-2.199 0.659,-3.067 0.149,-1.292 0.092,-4.506 0.021,-8.574 -0.076,-4.271 -0.162,-9.114 -0.013,-12.498 0.117,-2.666 2.079,-7.529 5.25,-13.01 2.859,-4.945 6.29,-9.661 8.54,-11.733 0.247,-0.226 0.478,-0.44 0.696,-0.645 2.407,-2.242 3.217,-2.996 6.628,-2.996 2.2,0 5.349,0.33 11.102,1.022 -0.603,0.097 -1.229,0.232 -1.866,0.406 -0.733,0.216 -1.481,0.475 -2.229,0.794 -0.752,0.305 -1.501,0.65 -2.251,0.996 -0.374,0.177 -0.744,0.365 -1.112,0.548 -0.363,0.201 -0.73,0.384 -1.085,0.593 -0.714,0.407 -1.401,0.843 -2.046,1.303 -0.324,0.229 -0.64,0.456 -0.939,0.698 -0.152,0.118 -0.301,0.234 -0.448,0.35 -0.146,0.117 -0.284,0.245 -0.423,0.365 -0.279,0.241 -0.548,0.475 -0.797,0.723 -0.248,0.245 -0.497,0.468 -0.715,0.712 -0.222,0.241 -0.437,0.463 -0.633,0.687 -0.191,0.229 -0.374,0.446 -0.544,0.651 -0.339,0.41 -0.603,0.802 -0.831,1.11 -0.419,0.652 -0.658,1.026 -0.658,1.026 l 0.137,0.124 c 0,0 0.271,-0.333 0.747,-0.912 0.126,-0.136 0.266,-0.286 0.418,-0.45 0.151,-0.164 0.307,-0.351 0.494,-0.522 0.183,-0.178 0.378,-0.369 0.583,-0.567 0.21,-0.193 0.438,-0.384 0.672,-0.588 0.229,-0.21 0.491,-0.396 0.75,-0.602 0.258,-0.209 0.539,-0.402 0.826,-0.602 0.284,-0.204 0.585,-0.397 0.894,-0.591 C 41.109,9.586 41.429,9.401 41.758,9.216 42.407,8.84 43.1,8.496 43.806,8.16 44.158,7.99 44.522,7.843 44.882,7.682 45.248,7.536 45.614,7.386 45.983,7.248 46.723,6.978 47.471,6.739 48.217,6.546 48.961,6.355 49.694,6.167 50.404,5.984 51.112,5.8 51.795,5.601 52.441,5.416 53.094,5.228 53.708,5.053 54.275,4.89 54.848,4.725 55.373,4.575 55.837,4.441 55.956,4.406 56.07,4.373 56.182,4.339 c 4.942,1.327 7.955,3.811 10.135,6.96 -0.1,0.256 -0.203,0.567 -0.295,0.936 -0.068,0.272 -0.124,0.574 -0.17,0.901 -0.031,0.328 -0.057,0.683 -0.035,1.06 0.006,0.092 0.012,0.187 0.018,0.282 0.008,0.096 0.026,0.193 0.044,0.292 0.021,0.196 0.079,0.395 0.136,0.593 0.025,0.101 0.072,0.197 0.109,0.295 l 0.061,0.147 0.031,0.073 c -0.002,0.002 0.016,0.035 0.023,0.05 0.076,0.155 0.152,0.315 0.216,0.461 0.14,0.294 0.279,0.629 0.456,0.953 0.17,0.326 0.379,0.663 0.673,0.933 0.289,0.27 0.651,0.449 0.98,0.472 0.084,0.017 0.16,0.009 0.234,0.008 0.08,-0.005 0.154,-0.007 0.229,-0.013 0.139,-0.029 0.271,-0.064 0.397,-0.096 0.186,-0.074 0.357,-0.142 0.506,-0.221 0.276,0.683 0.552,1.376 0.83,2.082 0.521,1.314 1.061,2.675 1.643,4.018 1.25,2.876 2.543,5.59 3.795,8.215 0.074,0.157 0.15,0.312 0.223,0.468 -0.087,-0.057 -0.17,-0.109 -0.258,-0.167 l -0.313,-0.2 -0.325,-0.184 C 75.31,32.533 75.094,32.409 74.876,32.285 74.441,32.055 74.005,31.822 73.564,31.59 73.121,31.381 72.678,31.166 72.237,30.966 71.788,30.783 71.344,30.593 70.904,30.421 70.453,30.263 70.013,30.103 69.573,29.957 69.132,29.828 68.695,29.702 68.265,29.578 67.836,29.453 67.41,29.369 66.994,29.266 66.787,29.216 66.584,29.168 66.379,29.121 66.176,29.083 65.974,29.047 65.773,29.011 65.375,28.939 64.989,28.87 64.617,28.803 64.242,28.751 63.879,28.702 63.533,28.657 62.836,28.549 62.194,28.517 61.631,28.462 61.349,28.44 61.087,28.414 60.84,28.4 60.597,28.391 60.367,28.383 60.166,28.377 59.355,28.348 58.891,28.332 58.891,28.332 l -0.023,0.301 c 0,0 0.454,0.101 1.247,0.276 0.397,0.084 0.878,0.188 1.423,0.333 0.549,0.141 1.167,0.285 1.831,0.49 0.333,0.097 0.68,0.198 1.04,0.304 0.354,0.119 0.72,0.242 1.098,0.367 0.188,0.064 0.379,0.128 0.569,0.195 0.191,0.071 0.386,0.146 0.577,0.219 0.39,0.154 0.793,0.289 1.191,0.466 0.396,0.173 0.801,0.349 1.206,0.528 0.403,0.199 0.809,0.391 1.216,0.588 0.405,0.208 0.808,0.433 1.214,0.648 0.396,0.232 0.788,0.477 1.185,0.716 0.381,0.268 0.771,0.513 1.141,0.796 0.179,0.145 0.361,0.288 0.542,0.432 l 0.27,0.217 0.258,0.23 c 0.172,0.152 0.342,0.303 0.514,0.453 0.166,0.156 0.331,0.311 0.494,0.463 0.329,0.302 0.637,0.621 0.953,0.916 0.611,0.61 1.21,1.188 1.751,1.776 0.409,0.442 0.793,0.88 1.144,1.313 1.726,3.933 3.414,8.238 4.956,13.369 3.857,12.864 -6.54,27.518 -6.982,28.134 z"
     id="path3077"
     style="fill:#000000" /><path
     d="m 70.818,82.128 c -0.06,-0.046 -0.146,-0.125 -0.265,-0.199 -0.231,-0.159 -0.581,-0.35 -1.033,-0.491 -0.451,-0.137 -1,-0.227 -1.595,-0.182 -0.298,0.016 -0.604,0.076 -0.91,0.158 -0.306,0.093 -0.614,0.212 -0.906,0.368 -0.295,0.153 -0.573,0.342 -0.832,0.549 -0.259,0.209 -0.491,0.445 -0.706,0.684 -0.102,0.127 -0.204,0.248 -0.297,0.372 -0.091,0.126 -0.176,0.254 -0.257,0.378 -0.159,0.254 -0.292,0.503 -0.402,0.741 -0.107,0.239 -0.201,0.46 -0.266,0.664 -0.067,0.203 -0.123,0.384 -0.154,0.534 -0.039,0.148 -0.061,0.271 -0.078,0.353 -0.014,0.082 -0.021,0.124 -0.021,0.124 0,0 0.031,-0.026 0.088,-0.083 0.049,-0.054 0.134,-0.132 0.227,-0.237 0.092,-0.105 0.217,-0.222 0.347,-0.361 0.127,-0.144 0.28,-0.291 0.44,-0.455 0.075,-0.082 0.162,-0.164 0.248,-0.248 0.091,-0.08 0.171,-0.174 0.269,-0.252 0.094,-0.084 0.186,-0.179 0.285,-0.259 0.103,-0.08 0.197,-0.17 0.3,-0.253 0.107,-0.078 0.212,-0.165 0.315,-0.246 0.111,-0.072 0.22,-0.154 0.331,-0.23 0.225,-0.144 0.449,-0.295 0.688,-0.411 0.234,-0.136 0.479,-0.231 0.719,-0.337 0.248,-0.09 0.488,-0.18 0.731,-0.242 0.241,-0.068 0.479,-0.124 0.708,-0.167 0.233,-0.046 0.454,-0.074 0.662,-0.103 0.416,-0.046 0.78,-0.069 1.036,-0.079 0.134,-0.004 0.235,-0.006 0.306,-0.006 0.071,-0.002 0.11,-0.002 0.11,-0.002 0,0 -0.029,-0.032 -0.088,-0.082 z"
     id="path3079"
     style="fill:#000000" /></svg>