<?xml version="1.0" encoding="UTF-8" standalone="no"?>
<!-- Created with Inkscape (http://www.inkscape.org/) -->

<svg
   xmlns:dc="http://purl.org/dc/elements/1.1/"
   xmlns:cc="http://creativecommons.org/ns#"
   xmlns:rdf="http://www.w3.org/1999/02/22-rdf-syntax-ns#"
   xmlns:svg="http://www.w3.org/2000/svg"
   xmlns="http://www.w3.org/2000/svg"
   version="1.1"
   width="100%"
   height="100%"
   viewBox="0 0 100 125"
   id="svg3082"
   xml:space="preserve"><metadata
     id="metadata3124"><rdf:RDF><cc:Work
         rdf:about=""><dc:format>image/svg+xml</dc:format><dc:type
           rdf:resource="http://purl.org/dc/dcmitype/StillImage" /><dc:title></dc:title></cc:Work></rdf:RDF></metadata><defs
     id="defs3122" /><path
     d="m 89.431,30.521 c -0.646,-1.314 -1.576,-2.408 -2.489,-3.703 -0.989,-1.404 -2.063,-2.596 -3.493,-3.56 -5.113,-3.447 -11.479,-6.043 -17.708,-6.081 -1.729,-0.011 -3.536,0.139 -5.232,0.484 -3.969,0.809 -7.338,2.777 -10.574,5.153 -2.443,1.794 -5.523,1.92 -8.227,3.112 -2.783,1.228 -4.973,3.439 -7.326,5.305 -2.219,1.759 -4.712,3.313 -6.796,5.231 -1.929,1.775 -3.864,3.543 -5.79,5.322 -2.355,2.175 -5.901,4.167 -7.538,6.94 -0.598,1.014 -0.797,2.734 -1.227,3.866 -2.025,5.335 -4.003,9.525 -2.343,15.339 1.485,5.203 4.055,9.633 8.165,13.169 1.205,1.036 2.521,1.944 3.919,2.698 4.38,2.361 9.533,3.093 14.399,2.065 3.765,-0.795 7.594,-3.313 11.252,-3.835 3.423,-0.49 6.696,-1.747 10.081,-2.435 2.053,-0.417 4.121,-1.31 6.114,-1.958 1.58,-0.515 3.27,-1.824 4.596,-2.81 1.265,-0.941 2.448,-1.989 3.668,-2.988 2.155,-1.764 4.271,-3.557 6.369,-5.389 0.402,-0.353 0.797,-0.762 1.229,-1.078 1.314,-0.964 2.454,-2.362 3.445,-3.974 l 1.052,-1.918 c 2.389,-4.81 3.565,-10.121 4.455,-15.384 0.268,-1.582 0.5,-3.169 0.686,-4.763 0.262,-2.254 0.438,-4.571 -0.007,-6.813 -0.146,-0.738 -0.383,-1.39 -0.68,-1.995 z"
     id="path3084"
     style="fill:none;stroke:#000000;stroke-width:4;stroke-miterlimit:10" /><path
     d="m 25.671,76.294 c 0,0 2.944,2.886 6.547,3.021 0,0 -7.012,1.956 -6.547,-3.021 z"
     id="path3086" /><path
     d="m 28.671,61.294 c 0,0 2.944,2.886 6.547,3.021 0,0 -7.012,1.956 -6.547,-3.021 z"
     id="path3088" /><path
     d="m 38.671,73.294 c 0,0 2.944,2.886 6.547,3.021 0,0 -7.012,1.956 -6.547,-3.021 z"
     id="path3090" /><path
     d="m 69.672,38.294 c 0,0 2.943,2.886 6.547,3.021 0,0 -7.013,1.956 -6.547,-3.021 z"
     id="path3092" /><path
     d="m 38.672,48.294 c 0,0 2.943,2.886 6.547,3.021 0,0 -7.013,1.956 -6.547,-3.021 z"
     id="path3094" /><path
     d="m 33.29,76.05 c 0,0 4.494,4.404 9.994,4.612 -10e-4,0 -10.704,2.985 -9.994,-4.612 z"
     id="path3096" /><path
     d="m 46,73.614 c 0,0 3.657,3.584 8.134,3.753 0,0 -8.712,2.43 -8.134,-3.753 z"
     id="path3098" /><path
     d="m 47.32,66.031 c 0,0 4.75,4.655 10.565,4.875 0,0 -11.315,3.157 -10.565,-4.875 z"
     id="path3100" /><path
     d="m 54.32,52.031 c 0,0 4.75,4.655 10.564,4.875 0.001,0 -11.314,3.157 -10.564,-4.875 z"
     id="path3102" /><path
     d="m 55.465,74.254 c 0,0 5.078,0.657 8.753,-1.905 0,0 -5.49,7.188 -8.753,1.905 z"
     id="path3104" /><path
     d="m 59.68,67.829 c 0,0 3.312,2.109 6.696,1.527 0,0 -6.151,3.203 -6.696,-1.527 z"
     id="path3106" /><path
     d="m 19.663,70 c 0,0 1.227,4.973 4.946,7.47 -0.001,0 -8.689,-2.515 -4.946,-7.47 z"
     id="path3108" /><path
     d="m 16.575,62.663 c 0,0 -0.707,3.354 0.809,5.941 0,0 -4.506,-4.042 -0.809,-5.941 z"
     id="path3110" /><path
     d="m 24.744,70.328 c 0,0 3.104,9.515 7.47,3.348 0,0 -4.271,0.871 -7.47,-3.348 z"
     id="path3112" /><path
     d="m 64.648,65.929 c 0,0 8.099,5.878 8.012,-1.678 0,0 -2.946,3.214 -8.012,1.678 z"
     id="path3114" /></svg>