<?xml version="1.0" encoding="UTF-8" standalone="no"?>
<!-- Created with Inkscape (http://www.inkscape.org/) -->

<svg
   xmlns:dc="http://purl.org/dc/elements/1.1/"
   xmlns:cc="http://creativecommons.org/ns#"
   xmlns:rdf="http://www.w3.org/1999/02/22-rdf-syntax-ns#"
   xmlns:svg="http://www.w3.org/2000/svg"
   xmlns="http://www.w3.org/2000/svg"
   version="1.1"
   width="100%"
   height="100%"
   viewBox="0 0 100 125"
   id="svg3646"
   xml:space="preserve"><metadata
     id="metadata3658"><rdf:RDF><cc:Work
         rdf:about=""><dc:format>image/svg+xml</dc:format><dc:type
           rdf:resource="http://purl.org/dc/dcmitype/StillImage" /><dc:title></dc:title></cc:Work></rdf:RDF></metadata><defs
     id="defs3656" /><path
     d="m 50.1,56.4 c 1,0.7 1.1,3 0.6,3.1 -0.8,0.3 -1,-0.7 -2,-1.5 -1,-0.7 -1.7,-0.3 -1.6,-1.1 0.1,-0.3 2,-1.2 3,-0.5 z m -33,-11.9 c 0.1,0.8 0.7,0.3 1.8,0.8 1.1,0.5 1.4,1.5 2.2,1 0.4,-0.2 -0.1,-2.5 -1.2,-3 -1.1,-0.5 -2.8,0.7 -2.8,1.2 z m 44.4,8.1 c -0.3,0.7 0.5,0.6 1.2,1.5 0.7,0.9 0.6,2 1.4,2 0.5,0 1.1,-2.2 0.4,-3.2 -0.8,-0.9 -2.8,-0.7 -3,-0.3 z M 23.2,34.4 c 0,0.8 0.6,0.4 1.7,1 1,0.6 1.2,1.6 2.1,1.3 0.4,-0.2 0.2,-2.5 -0.8,-3.1 -1.2,-0.6 -3,0.4 -3,0.8 z m 17,-1.8 c 0,0.8 0.7,0.3 1.7,0.8 1.1,0.6 1.3,1.6 2.1,1.2 0.4,-0.2 0,-2.5 -1.1,-3 -1,-0.5 -2.8,0.6 -2.7,1 z M 32.3,37 c -0.2,0.8 0.6,0.5 1.5,1.3 0.9,0.8 0.9,1.8 1.8,1.6 0.5,-0.1 0.6,-2.4 -0.3,-3.2 -1,-0.7 -2.9,-0.1 -3,0.3 z m 39.3,6.6 c -0.2,0.8 0.5,0.5 1.4,1.3 0.9,0.8 0.8,1.9 1.7,1.7 0.5,-0.1 0.7,-2.4 -0.1,-3.2 -0.9,-0.8 -2.9,-0.3 -3,0.2 z m 0.9,8.5 c -0.2,0.8 0.6,0.5 1.5,1.2 0.9,0.7 0.9,1.8 1.8,1.6 0.5,-0.1 0.6,-2.4 -0.3,-3.2 -0.9,-0.8 -2.9,0 -3,0.4 z M 44.5,66 c -0.2,0.7 0.5,0.4 1.3,1.2 0.8,0.8 0.8,1.7 1.5,1.6 0.4,-0.1 0.6,-2.1 -0.1,-2.9 -0.8,-0.7 -2.6,-0.3 -2.7,0.1 z m 39.8,2.8 C 74.6,77.9 58.6,81 52.9,81 c 0,0 0,0 0,0 -10,0 -15.2,-4 -16.9,-5.7 -0.8,-0.8 -3.6,-3.8 -3.5,-8.7 0,-3.1 1.2,-6.3 3.5,-9.3 -0.9,0.2 -1.8,0.6 -3.2,1.2 -0.5,0.3 -2.5,1.7 -5.2,3 -1.8,0.9 -5,1.6 -8.3,1.6 -3.4,0 -6.9,-0.8 -9.5,-3 -5,-4.4 -6.2,-11 -3.4,-17.8 2.8,-6.6 9.6,-12.5 17.4,-15 7.6,-2.4 16.9,-1.5 22.2,0.3 11.9,4.1 12.2,13.1 12,15.8 0,0.3 -0.1,0.5 -0.1,0.7 0.2,-0.1 0.4,-0.2 0.6,-0.4 0.5,-0.4 1.2,-0.8 1.9,-1.4 4.2,-3.1 11.1,-8.2 17.8,-8.2 8.7,0 14.4,4.2 16.1,11.9 1.8,8.3 -4,17.2 -10,22.8 z M 38,55 c 0.1,-0.1 0.2,-0.2 0.2,-0.2 5.9,-5.7 11.5,-7.6 15.7,-9 0.7,-0.2 1.3,-0.4 1.9,-0.7 0.1,-0.6 0.2,-1.2 0.3,-1.8 C 56.3,40.4 55.6,33.1 45.4,29.5 40.4,27.7 31.7,26.9 24.5,29.2 17.1,31.6 10.8,37 8.2,43.1 5.6,49.2 6.7,54.8 11,58.7 c 4.4,3.8 12.4,2.6 15.6,1.1 2.9,-1.4 5,-2.9 5,-2.9 l 0.2,-0.2 C 34.3,55.6 35.3,55 38,55 z M 92.4,46.6 C 90.6,38.1 83.7,36.3 78.3,36.3 c -6,0 -12.6,4.9 -16.6,7.8 -0.7,0.5 -1.4,1 -2,1.4 -0.7,0.5 -1.6,0.9 -2.6,1.3 0,0 -0.1,0 -0.1,0 -0.8,0.3 -1.6,0.6 -2.5,0.9 -4.2,1.4 -9.4,3.1 -14.9,8.5 -3.5,3.3 -5.2,6.8 -5.2,10.4 0,3.2 1.5,5.9 2.9,7.3 3.3,3.2 9.1,5.1 15.5,5.1 0,0 0,0 0,0 6.2,0 21.4,-3.4 30.2,-11.7 5.3,-5 10.9,-13.4 9.4,-20.7 z m -3.5,0.6 c -0.6,-0.1 -1,0.3 -1.1,0.9 0,0.1 -1.5,12.9 -14.9,20.3 -0.5,0.3 -0.7,0.9 -0.4,1.4 0.2,0.3 0.5,0.5 0.9,0.5 0.2,0 0.3,0 0.5,-0.1 C 88.2,62.3 89.8,49 89.8,48.4 89.9,47.8 89.5,47.3 88.9,47.2 z M 28,53.3 c -6.1,5.7 -13.4,2.5 -13.8,2.4 -0.5,-0.2 -1.1,0 -1.3,0.5 -0.2,0.5 0,1.1 0.5,1.3 0.2,0.1 2.7,1.1 6,1.1 3,0 6.6,-0.8 9.9,-3.9 0.4,-0.4 0.4,-1 0.1,-1.4 -0.4,-0.4 -1,-0.4 -1.4,0 z"
     id="path3648" /></svg>