<?xml version="1.0" encoding="UTF-8" standalone="no"?>
<!-- Created with Inkscape (http://www.inkscape.org/) -->

<svg
   xmlns:dc="http://purl.org/dc/elements/1.1/"
   xmlns:cc="http://creativecommons.org/ns#"
   xmlns:rdf="http://www.w3.org/1999/02/22-rdf-syntax-ns#"
   xmlns:svg="http://www.w3.org/2000/svg"
   xmlns="http://www.w3.org/2000/svg"
   version="1.1"
   width="100%"
   height="100%"
   viewBox="0 0 100 125"
   id="svg3240"
   xml:space="preserve"><metadata
     id="metadata3276"><rdf:RDF><cc:Work
         rdf:about=""><dc:format>image/svg+xml</dc:format><dc:type
           rdf:resource="http://purl.org/dc/dcmitype/StillImage" /><dc:title></dc:title></cc:Work></rdf:RDF></metadata><defs
     id="defs3274" /><g
     id="g3242"><g
       id="g3244"><path
         d="m 74.438,49.039 c -7.05,-1.563 -13.426,-0.452 -18.767,3.119 -0.47,-0.953 -1.104,-1.903 -1.892,-2.841 0.08,-0.04 0.162,-0.077 0.232,-0.14 1.344,-1.187 3.669,-1.66 5.721,-2.079 1.367,-0.278 2.659,-0.542 3.591,-1.007 1.543,-0.771 5.75,-3.698 6.68,-7.943 0.558,-2.551 -0.145,-5.07 -2.089,-7.49 C 61.85,23.111 55.342,26.841 49.6,30.136 c -1.215,0.697 -2.472,1.418 -3.695,2.021 -5.618,2.769 -6.588,6.054 -6.678,7.742 -0.419,-0.165 -0.837,-0.33 -1.267,-0.488 -6.247,-2.302 -12.372,-2.083 -16.807,0.599 -3.422,2.068 -5.525,5.419 -6.084,9.688 -0.453,3.463 0.461,6.558 2.645,8.948 2.215,2.426 6.828,5.233 16.271,4.865 2.784,-0.11 5.46,0.202 8.05,0.503 1.495,0.174 2.921,0.335 4.27,0.404 -0.168,1.176 -0.145,2.382 0.104,3.58 0.562,2.714 2.147,5.046 4.463,6.566 1.696,1.114 3.66,1.704 5.637,1.704 0.002,0 0.003,0 0.005,0 0.212,0.009 0.42,0.013 0.622,0.013 3.712,0 5.824,-1.438 7.867,-2.829 1.75,-1.191 3.403,-2.317 6.132,-2.474 5.239,-0.299 11.447,-1.514 12.958,-8.309 0.587,-2.641 -0.254,-5.742 -2.306,-8.51 -1.942,-2.613 -4.688,-4.528 -7.349,-5.12 z M 41.363,40.524 c -0.029,-0.139 -0.645,-3.441 5.48,-6.461 1.284,-0.633 2.57,-1.37 3.813,-2.084 5.728,-3.284 10.672,-6.123 15.6,0.011 1.521,1.894 2.083,3.812 1.669,5.704 -0.747,3.413 -4.349,5.895 -5.552,6.495 -0.681,0.34 -1.84,0.576 -3.066,0.826 -2.312,0.472 -4.934,1.006 -6.702,2.568 -0.087,0.076 -0.145,0.17 -0.2,0.265 -0.697,-0.68 -1.471,-1.348 -2.317,-2.002 0.238,-0.038 0.458,-0.102 0.636,-0.222 0.374,-0.253 0.589,-0.663 0.589,-1.126 0,-0.587 -0.477,-1.062 -1.063,-1.062 -0.284,0 -0.541,0.11 -0.732,0.292 -0.209,-0.045 -0.487,-0.128 -0.713,-0.217 -0.513,-0.206 -1.079,0.029 -1.326,0.512 -1.822,-1.155 -3.869,-2.244 -6.111,-3.235 10e-4,-0.088 0.014,-0.175 -0.005,-0.264 z m 0.916,21.378 C 39.733,61.606 36.846,61.273 33.9,61.386 27.076,61.654 22.024,60.213 19.284,57.212 c -1.748,-1.914 -2.477,-4.417 -2.107,-7.239 0.473,-3.605 2.228,-6.422 5.077,-8.145 3.821,-2.31 9.416,-2.469 14.972,-0.424 8.439,3.108 14.795,7.701 16.7,12.04 -1.685,1.36 -3.257,2.977 -4.692,4.865 -0.222,-0.028 -0.451,-0.006 -0.661,0.113 -0.533,0.301 -1.022,-0.114 -1.12,-0.205 -0.414,-0.406 -1.082,-0.404 -1.494,0.008 -0.416,0.415 -0.416,1.088 -0.001,1.503 0.324,0.325 0.948,0.722 1.704,0.864 -0.329,0.552 -0.605,1.126 -0.824,1.718 -1.4,-0.047 -2.935,-0.219 -4.559,-0.408 z m 39.736,0.308 c -0.962,4.33 -4.149,6.256 -11.003,6.646 -3.317,0.19 -5.295,1.537 -7.208,2.84 -1.858,1.265 -3.613,2.46 -6.67,2.46 -0.173,0 -0.351,-0.004 -0.577,-0.012 -1.606,0 -3.169,-0.47 -4.52,-1.356 -1.841,-1.209 -3.102,-3.063 -3.549,-5.221 -0.446,-2.157 -0.026,-4.359 1.183,-6.201 4.686,-7.136 11.116,-10.908 18.597,-10.908 1.825,0 3.746,0.221 5.709,0.657 4.371,0.972 9.053,6.527 8.038,11.095 z"
         id="path3246" /><path
         d="m 76.102,53.556 c -0.49,-0.325 -1.149,-0.187 -1.472,0.304 -0.323,0.49 -0.187,1.149 0.304,1.472 1.463,0.963 2.712,2.472 3.341,4.037 0.167,0.415 0.565,0.667 0.986,0.667 0.132,0 0.267,-0.025 0.396,-0.077 0.545,-0.219 0.809,-0.838 0.59,-1.383 -0.796,-1.982 -2.308,-3.812 -4.145,-5.02 z"
         id="path3248" /><path
         d="m 27.569,44.994 c -0.564,0.162 -0.892,0.75 -0.73,1.314 0.137,0.477 -0.203,0.772 -0.315,0.854 -0.477,0.328 -0.604,0.98 -0.281,1.464 0.205,0.308 0.542,0.475 0.886,0.475 0.202,0 0.407,-0.059 0.588,-0.179 0.65,-0.433 1.627,-1.593 1.168,-3.198 -0.163,-0.565 -0.756,-0.886 -1.316,-0.73 z"
         id="path3250" /><path
         d="m 34.665,53.962 c -0.587,0 -1.063,0.477 -1.063,1.063 0,0.135 -0.379,0.362 -0.673,0.442 -0.565,0.146 -0.908,0.72 -0.767,1.287 0.121,0.483 0.555,0.806 1.03,0.806 0.086,0 0.173,-0.011 0.259,-0.032 0.846,-0.212 2.277,-0.977 2.277,-2.503 10e-4,-0.587 -0.476,-1.063 -1.063,-1.063 z"
         id="path3252" /><path
         d="m 44.272,48.298 c -0.515,-0.278 -1.161,-0.088 -1.44,0.431 -0.187,0.344 -0.708,0.186 -0.816,0.149 -0.549,-0.201 -1.154,0.079 -1.358,0.626 -0.206,0.55 0.072,1.163 0.622,1.368 0.285,0.107 0.687,0.195 1.126,0.195 0.809,0 1.742,-0.299 2.298,-1.329 0.277,-0.516 0.085,-1.161 -0.432,-1.44 z"
         id="path3254" /><path
         d="m 52.271,40.049 c 0.354,0 0.71,-0.088 1.053,-0.294 0.503,-0.303 0.688,-0.963 0.385,-1.466 -0.302,-0.504 -0.933,-0.676 -1.438,-0.37 -10e-4,0 -0.003,0 -0.005,0 -0.159,0 -0.574,-0.268 -0.829,-0.536 -0.399,-0.429 -1.07,-0.449 -1.499,-0.053 -0.43,0.399 -0.455,1.072 -0.056,1.503 0.593,0.637 1.481,1.216 2.389,1.216 z"
         id="path3256" /><path
         d="m 59.406,37.969 c 0.326,0.152 0.838,0.298 1.398,0.298 0.704,0 1.485,-0.229 2.08,-0.955 0.371,-0.454 0.304,-1.124 -0.15,-1.496 -0.455,-0.372 -1.125,-0.304 -1.496,0.15 -0.286,0.348 -0.901,0.09 -0.941,0.072 -0.53,-0.24 -1.156,-0.012 -1.403,0.518 -0.249,0.531 -0.02,1.164 0.512,1.413 z"
         id="path3258" /><path
         d="m 56.02,62.009 c -0.535,0.306 -1.023,-0.113 -1.121,-0.204 -0.416,-0.407 -1.082,-0.403 -1.494,0.01 -0.415,0.415 -0.415,1.088 10e-4,1.503 0.398,0.398 1.237,0.928 2.236,0.928 0.453,0 0.939,-0.109 1.433,-0.391 0.51,-0.291 0.687,-0.94 0.396,-1.45 -0.292,-0.509 -0.94,-0.69 -1.451,-0.396 z"
         id="path3260" /><path
         d="m 69.049,61.868 c -0.26,0 -0.396,-0.202 -0.408,-0.602 -0.005,-0.582 -0.479,-1.052 -1.062,-1.053 -10e-4,0 -10e-4,0 -10e-4,0 -0.587,0 -1.062,0.476 -1.062,1.062 -0.001,0.107 0.013,0.67 0.274,1.26 0.412,0.927 1.235,1.459 2.259,1.459 0.587,0 1.063,-0.477 1.063,-1.063 0,-0.586 -0.476,-1.063 -1.063,-1.063 z"
         id="path3262" /><path
         d="m 26.059,56.923 c -0.032,-0.006 -3.282,-0.648 -4.663,-2.948 -0.312,-0.523 -0.565,-1.051 -0.753,-1.565 -0.199,-0.553 -0.812,-0.841 -1.361,-0.637 -0.552,0.2 -0.837,0.81 -0.637,1.361 0.232,0.643 0.544,1.292 0.928,1.933 1.88,3.133 5.925,3.915 6.097,3.946 0.065,0.013 0.13,0.019 0.194,0.019 0.501,0 0.946,-0.356 1.042,-0.867 0.108,-0.577 -0.271,-1.132 -0.847,-1.242 z"
         id="path3264" /><path
         d="m 19.242,50.963 c 0.582,-10e-4 1.057,-0.469 1.062,-1.052 0.001,-0.057 0,-0.111 -0.004,-0.163 -0.066,-1.023 -0.875,-1.088 -1.044,-1.09 -0.031,0 -1.005,0.012 -1.074,1.063 L 18.18,49.77 c -0.001,0.015 -0.001,0.03 -0.001,0.045 v 0.072 c -0.007,0.587 0.464,1.068 1.051,1.074 0.004,0.001 0.008,0.002 0.012,0.002 z"
         id="path3266" /></g></g></svg>