<?xml version="1.0" encoding="UTF-8" standalone="no"?>
<!-- Created with Inkscape (http://www.inkscape.org/) -->

<svg
   xmlns:dc="http://purl.org/dc/elements/1.1/"
   xmlns:cc="http://creativecommons.org/ns#"
   xmlns:rdf="http://www.w3.org/1999/02/22-rdf-syntax-ns#"
   xmlns:svg="http://www.w3.org/2000/svg"
   xmlns="http://www.w3.org/2000/svg"
   version="1.1"
   width="100%"
   height="100%"
   viewBox="0 0 100 125"
   id="svg3037"
   xml:space="preserve"><metadata
     id="metadata3049"><rdf:RDF><cc:Work
         rdf:about=""><dc:format>image/svg+xml</dc:format><dc:type
           rdf:resource="http://purl.org/dc/dcmitype/StillImage" /><dc:title></dc:title></cc:Work></rdf:RDF></metadata><defs
     id="defs3047" /><path
     d="M 81.76,36.02 76.84,31.1 c -0.287,-0.287 -0.686,-0.459 -1.086,-0.445 -0.407,0.003 -0.796,0.168 -1.08,0.461 -1.354,1.389 -2.631,2.834 -3.847,4.32 l 2.405,-5.042 c 0.361,-0.759 0.039,-1.668 -0.718,-2.029 l -6.276,-2.997 c -0.365,-0.173 -0.783,-0.195 -1.164,-0.061 -0.107,0.039 -0.194,0.113 -0.29,0.174 l 2.853,-11.474 c 0.203,-0.814 -0.293,-1.641 -1.109,-1.843 l -6.75,-1.681 c -0.389,-0.097 -0.805,-0.036 -1.15,0.174 -0.347,0.208 -0.596,0.544 -0.692,0.936 l -3.501,14.073 -1.611,-0.4 c -0.39,-0.097 -0.807,-0.036 -1.151,0.172 -0.249,0.149 -0.421,0.377 -0.548,0.629 V 15.875 c 0,-0.84 -0.682,-1.521 -1.522,-1.521 l -6.956,-10e-4 c -0.402,0 -0.791,0.16 -1.076,0.446 -0.285,0.286 -0.445,0.672 -0.445,1.076 v 7.284 l -5.994,-9.963 c -0.434,-0.72 -1.369,-0.953 -2.089,-0.521 l -5.961,3.584 c -0.344,0.208 -0.596,0.545 -0.692,0.938 -0.097,0.392 -0.035,0.805 0.174,1.151 l 4.893,8.132 -0.965,0.24 c -0.392,0.099 -0.729,0.349 -0.936,0.694 -0.022,0.039 -0.025,0.086 -0.046,0.126 -0.835,-0.963 -1.692,-1.912 -2.589,-2.831 -0.285,-0.293 -0.674,-0.459 -1.08,-0.461 -0.489,0.031 -0.798,0.158 -1.086,0.445 l -4.92,4.917 c -0.588,0.588 -0.594,1.542 -0.016,2.136 1.187,1.221 2.306,2.491 3.367,3.8 -0.008,0.005 -0.018,0.009 -0.023,0.014 l -4.92,4.918 c -0.588,0.588 -0.594,1.541 -0.015,2.138 0.448,0.462 0.862,0.95 1.292,1.425 -0.107,0.286 -0.161,0.589 -0.085,0.896 l 10.868,43.472 c 0.17,0.678 0.777,1.152 1.477,1.152 h 32.604 c 0.698,0 1.307,-0.475 1.477,-1.152 L 76.728,44.937 c 0.063,-0.25 0.047,-0.504 -0.015,-0.747 1.541,-2.109 3.218,-4.135 5.063,-6.034 0.578,-0.597 0.572,-1.55 -0.016,-2.136 z M 66.3,28.77 69.83,30.457 60.072,50.91 c -1.691,0.9 -3.478,1.603 -5.338,2.101 L 66.3,28.77 z m -5.78,-14.965 3.798,0.946 -5.773,23.211 -0.302,0.629 2.439,-9.8 c 0.202,-0.816 -0.295,-1.642 -1.109,-1.845 L 57.387,26.403 60.52,13.805 z m -6.956,14.78 3.797,0.946 -5.668,22.785 -0.68,1.428 c -0.967,0.109 -1.945,0.168 -2.936,0.168 -0.27,0 -0.532,-0.037 -0.802,-0.045 L 53.564,28.585 z M 44.166,17.396 h 3.912 V 38.033 L 45.08,50.096 44.166,46.45 V 17.396 z m -1.414,35.936 c -1.506,-0.316 -2.963,-0.775 -4.373,-1.354 l -5.676,-22.676 3.795,-0.95 6.254,24.98 z m -12.8,-35.249 3.354,-2.016 7.816,12.993 v 5.23 l -2.041,-8.153 c -0.203,-0.814 -1.03,-1.31 -1.846,-1.107 l -2.698,0.676 -4.585,-7.623 z m -6.921,12.633 2.77,-2.769 c 1.789,1.929 3.428,3.964 4.946,6.073 l 3.084,12.319 c -0.481,-0.757 -0.98,-1.504 -1.494,-2.243 -2.456,-4.819 -5.562,-9.328 -9.306,-13.38 z m 1.177,8.099 c 2.003,2.154 3.835,4.434 5.501,6.811 0.141,0.277 0.252,0.567 0.387,0.849 -0.885,-0.879 -1.734,-1.805 -2.501,-2.822 -0.286,-0.382 -0.737,-0.609 -1.214,-0.609 H 22.66 c -0.416,-0.48 -0.787,-0.991 -1.221,-1.46 l 2.769,-2.769 z M 63.193,86.518 H 32.965 l -9.51,-38.039 -0.598,-2.391 h 2.347 0.429 c 1.971,2.486 4.296,4.571 6.861,6.245 0,0.001 0,0.001 0,0.001 10e-4,0 0.002,0 0.004,0.003 4.572,2.981 9.932,4.62 15.58,4.62 3.471,0 6.826,-0.633 9.965,-1.797 l 0,0 c 0.002,0 0.002,0 0.004,0 1.09,-0.404 2.146,-0.885 3.18,-1.42 0.018,-0.009 0.037,-0.021 0.057,-0.03 1.022,-0.533 2.007,-1.134 2.962,-1.793 l 0,0 0,0 c 2.328,-1.605 4.46,-3.536 6.28,-5.829 h 1.27 1.506 l -0.598,2.391 -9.511,38.039 z M 73.816,43.044 h -4.039 c -0.37,0 -0.701,0.169 -0.977,0.408 2.044,-3.208 4.359,-6.264 6.99,-9.097 l 2.77,2.769 c -1.731,1.872 -3.298,3.859 -4.744,5.92 z"
     id="path3039"
     style="fill:#000000" /></svg>